<svg version="1.1" id="Layer_1" xmlns="http://www.w3.org/2000/svg" x="0" y="0" viewBox="0 0 273.6 79.7" xml:space="preserve"><style>.st0{fill:#e50083}.st1{fill:#2a2886}</style><path class="st0" d="M4.1 29.2C1.7 31.2.2 34 0 37.3c-.1 3.4 1.3 6.4 3.8 8.6 2.6-2 4.2-5 4.4-8.3 0-1.4 0-3-.6-3.9-.7-1-2.6-2.8-3.5-4.5m-.3 2.7c.7 1 1.9 1.7 2.3 2.7.4 1 .4 2 .4 3-.1 2.3-1 4.4-2.6 6.1-1.5-1.8-2.3-4-2.2-6.2 0-2.2.8-4.1 2.1-5.6M45.5 23c-.7-.7-1.4-1.5-1.6-2.5-.2-1 .1-2.4 0-3.6 2 .4 3.8 1.3 5.2 2.8 1.5 1.7 2.4 3.9 2.4 6.2-2.4-.2-4.5-1.2-6-2.9m4.8-4.3c-2.1-2.3-5.2-3.7-8.2-3.5h-.2c.4 1.9.1 4.4.3 5.7.1 1.2 1.2 2.3 2.1 3.3 2.1 2.3 5.1 3.5 8.2 3.5h.6c.3-3.3-.6-6.6-2.8-9M33.5 12.4C31.1 11 28.8 9 27.2 6.8l-.2-.3v-.4c.2-1.2.4-2.3.3-3.4 5.2 1.9 9.3 6.2 10.8 11.6-1.4-.4-3-1-4.6-1.9m-17.4 8.4c-3 2.7-6.3 4.9-9.6 6.3-1.3-2.4-2.1-5.2-2.1-8.2 0-9.5 7.7-17.2 17.2-17.2 1.4 0 2.8.2 4.1.5.3 5.7-3.4 12.8-9.6 18.6M40 14.5C38 6.2 30.6 0 21.6 0 11.2 0 2.7 8.5 2.7 18.9c0 3.2.8 6.2 2.2 8.8l.1.1c0 .1.1.2.1.2l.6 1c3.4 5.2 9.2 8.7 15.9 8.7 1.7 0 3.3-.2 4.9-.7v-1.8c-1.5.5-3.2.7-4.9.7-6 0-11.2-3-14.3-7.7 3.4-1.5 6.8-3.7 9.9-6.5 4-3.7 7-7.9 8.7-12.2l.5-1.2.9 1c1.5 1.7 3.4 3.2 5.4 4.3 2 1.1 4 1.8 5.9 2.1.2 1 .3 1.9.3 3 0 5.9-3 11.1-7.6 14.3l.2.2 1 .9c4.8-3.4 8-9 8-15.4 0-.9-.1-1.9-.2-2.8l-.3-1.4z"/><path class="st1" d="M28.1 36.7v-4.4l.9.8 1 .9.2.2 1.1 1 25.6 23.2L44.5 61l6.9 13.5-5.7 3.1-6.9-14.2-10.7 9V36.7zM26.5 34v41.7l11.7-9.8L45 79.7l8.5-4.6-6.7-13 13.3-2.8-27.5-25-1-.9-.2-.2-.9-.9-3.9-3.5V34zM87 35.9h-.2c-.5-.8-1.3-1.5-2.6-2s-2.8-.8-4.6-.8c-1.9 0-3.6.7-5.1 2.1-1.4 1.4-2.2 3-2.2 5 0 2.4.7 4.4 2 5.9s3.1 2.2 5.3 2.2c3.4 0 5.7-.8 7-2.5h.2v3c0 1.6-.7 2.9-2.2 4-1.4 1-3.3 1.5-5.7 1.5-3.7 0-6.9-1.3-9.5-3.8-2.7-2.5-4-5.7-4-9.4 0-3.9 1.3-7.3 3.9-10 2.6-2.7 6.1-4.1 10.4-4.1 2.1 0 3.8.5 5.2 1.6 1.4 1.1 2 2.4 2 4.1v3.2zM111 50.8c0 .8-.4 1.5-1.1 2.1-.7.6-1.5 1-2.3 1H94.7c-1.5 0-2.6-.3-3.4-.9-.8-.6-1.2-1.5-1.2-2.6 0-2 1.3-4.4 4-7.3l6.7-7.3c1.1-1.3 1.9-2.3 2.3-3h-13v-2c0-1 .4-1.8 1.1-2.5.8-.7 1.8-1 3.2-1h12c1.4 0 2.4.3 3.1 1 .7.7 1 1.5 1 2.4 0 2.2-1.1 4.6-3.4 7l-6.6 7.2c-1.2 1.3-2 2.4-2.5 3.3h13v2.6zM130.9 36.3c0-1.3-.4-2.3-1.3-3-.9-.7-2.1-1-3.7-1s-2.9.5-3.9 1.6-1.6 2.4-1.6 4v.9h2.9c3 0 5.1-.2 6.1-.6.9-.3 1.5-1 1.5-1.9m6.1.8c0 2.4-1 4.1-2.9 5-1.9.9-5.1 1.4-9.5 1.4h-4.3c.2 1.6 1 3 2.4 4s3 1.5 5 1.5c3.6 0 6.3-.8 8.1-2.5h.2v2.1c0 4-3.2 6-9.6 6-3.4 0-6.5-1.2-9.1-3.7-2.6-2.5-3.9-5.7-3.9-9.6 0-4.4 1.2-7.8 3.6-10.5 2.4-2.6 5.5-3.9 9.4-3.9 2.9 0 5.4.9 7.5 2.8 2.1 1.8 3.1 4.3 3.1 7.4M161.4 35.9h-.2c-.5-.8-1.3-1.5-2.6-2s-2.8-.8-4.6-.8c-1.9 0-3.6.7-5.1 2.1-1.4 1.4-2.2 3-2.2 5 0 2.4.7 4.4 2 5.9s3.1 2.2 5.3 2.2c3.4 0 5.7-.8 7-2.5h.2v3c0 1.6-.7 2.9-2.2 4-1.4 1-3.3 1.5-5.7 1.5-3.7 0-6.9-1.3-9.5-3.8-2.7-2.5-4-5.7-4-9.4 0-3.9 1.3-7.3 3.9-10 2.6-2.7 6.1-4.1 10.4-4.1 2.1 0 3.8.5 5.2 1.6 1.4 1.1 2 2.4 2 4.1v3.2zM189.4 53.9h-2.2c-1.4 0-2.5-.4-3.3-1.2-.8-.8-1.2-1.9-1.2-3.3V38.7c0-2.1-.5-3.6-1.5-4.6-1-1-2.2-1.5-3.8-1.5-1.2 0-2.4.5-3.3 1.5-1 1-1.5 2.6-1.5 4.7v15h-2.2c-3 0-4.5-1.5-4.5-4.4V18.6h2.1c1.5 0 2.7.4 3.5 1.2.8.8 1.2 1.8 1.2 3.1v7.6c.6-.9 1.4-1.7 2.4-2.5 1.1-.7 2.2-1.1 3.3-1.1 3.4 0 6.1 1 8 3 1.9 2 2.8 4.9 2.8 8.6v15.4z"/><path class="st0" d="M206.9 50.2c0 1.4-.3 2.4-.9 3-.6.6-1.6.9-3 .9-2.6 0-4.5-.7-5.9-2.1-1.4-1.4-2-3.5-2-6.1V28h1.9c3.1 0 4.7 1.6 4.7 4.9v12.4c0 1.3.3 2.2.9 2.7.6.5 1.6.8 3.1.8h1.2v1.4zm-5.8-31.3c.8.8 1.2 1.7 1.2 2.7 0 1.1-.4 2-1.2 2.7-.8.8-1.7 1.2-2.7 1.2-1 0-1.9-.4-2.7-1.2-.8-.8-1.1-1.7-1.1-2.7 0-1 .4-1.9 1.1-2.7.8-.8 1.7-1.1 2.7-1.1 1 0 1.9.4 2.7 1.1M209.7 28.5c0-1.2.1-2.2.4-2.9.3-.7.8-1.5 1.5-2.4 1-1.2 2.1-1.8 3.1-1.8h1.5v6h9.2v2.7c0 .8-.3 1.5-1 2.2-.7.7-1.7 1-2.9 1h-5.3v10.4c0 3.2 1.4 4.8 4.2 4.8 2.2 0 3.7-.3 4.8-.9h.3V50c0 1.4-.5 2.5-1.5 3.2-1 .8-2.4 1.2-4.3 1.2-3.3 0-5.7-.9-7.4-2.6-1.7-1.7-2.5-4.1-2.5-7.3v-16z"/><path class="st1" d="M243.5 44.9v-2.6h-2.4c-2.4 0-4.1.3-5 .8-1 .5-1.4 1.4-1.4 2.5 0 1 .4 1.9 1.2 2.4.8.6 1.9.9 3.4.9 2.8.1 4.2-1.3 4.2-4m6.4 0c0 2.8-.9 5.1-2.8 6.8-1.9 1.8-4.3 2.6-7.2 2.6h-1.3c-3.1 0-5.7-.8-7.6-2.4-2-1.6-3-3.6-3-6 0-2.6 1-4.6 3.1-6.1s5.4-2.2 10-2.2h2.3v-.3c0-1.8-.4-3.1-1.3-3.8-.9-.7-2.3-1.1-4.4-1.1-2.1 0-3.9.3-5.3.9-1.4.6-2.4 1.3-3.1 2.1h-.2v-2.1c0-1.7.8-3.2 2.4-4.5 1.6-1.3 4-2 7.2-2 1.6 0 3 .2 4.3.6 1.3.4 2.4 1 3.5 1.9 1.1.9 1.9 2.1 2.5 3.7.6 1.6.9 3.5.9 5.7v6.2zM273.6 45.6c0 2.8-1 5-2.9 6.6-1.9 1.6-4.6 2.4-8.2 2.4-2.4 0-4.4-.5-6-1.6-1.6-1-2.5-2.3-2.5-3.6v-3h.2c.7.7 1.8 1.3 3.4 1.8 1.5.5 3.1.7 4.6.7 3.2 0 4.8-1 4.8-2.9 0-.8-.4-1.4-1.1-1.8-.7-.4-2.2-.8-4.4-1.1-2.8-.4-4.9-1.2-6.3-2.3-1.4-1.1-2-2.7-2-4.7 0-2.6 1-4.7 3.1-6.5 2.1-1.8 4.8-2.7 8.1-2.7 2.8 0 4.8.6 6.3 1.7 1.4 1.1 2.2 2.5 2.2 3.9V35h-.2c-.7-.7-1.7-1.3-3.1-1.8-1.4-.5-2.9-.7-4.4-.7-3.5 0-5.3 1-5.3 2.9 0 .7.3 1.2 1 1.5.7.3 2.1.7 4.3 1.1 5.6 1 8.4 3.5 8.4 7.6"/></svg>